Coordinates
nRows=10
nColumns=38

# SIMM Motion File Header:
name Coordinates
datacolumns 38
datarows 10
otherdata 1
range 1.98100000000000010000 1.99000000000000000000

Units are S.I. units (second, meters, Newtons, ...)
Angles are in degrees.

endheader
time	pelvis_tilt	pelvis_list	pelvis_rotation	pelvis_tx	pelvis_ty	pelvis_tz	hip_flexion_r	hip_adduction_r	hip_rotation_r	knee_angle_r	ankle_angle_r	subtalar_angle_r	mtp_angle_r	hip_flexion_l	hip_adduction_l	hip_rotation_l	knee_angle_l	ankle_angle_l	subtalar_angle_l	mtp_angle_l	lumbar_extension	lumbar_bending	lumbar_rotation	arm_flex_r	arm_add_r	arm_rot_r	elbow_flex_r	pro_sup_r	wrist_flex_r	wrist_dev_r	arm_flex_l	arm_add_l	arm_rot_l	elbow_flex_l	pro_sup_l	wrist_flex_l	wrist_dev_l
      1.98100000000000010000	     -4.48297081127823560000	      2.27527232933603950000	      6.76408068153579030000	      0.75077345922034655000	      0.97007805430775673000	     -0.30762731540518640000	     42.05595906588216300000	     -2.91929280565877170000	     -6.53047761712528360000	   -105.68270073032848000000	     -4.30437450777420420000	     -0.00000000000014099080	      0.00000000000016148275	      2.64061730546351510000	      5.15354297060030840000	     -2.45044911808272790000	    -30.54056706394803600000	     10.29763725939992400000	     -0.00000000000001647440	     -0.00000000000004121153	     -7.49618457666686750000	     -2.03352319536654940000	    -16.10784650203260100000	    -20.10144868729661000000	    -22.64623296143740600000	     14.51154327693824800000	     82.05172074048459800000	     69.54852086214616200000	      0.00000000000002808757	      0.00000000000001287861	     -8.83469113589738870000	    -34.46158419725549000000	     17.07647222496476000000	    113.86746845743041000000	     76.63796344594943800000	     -0.00000000000000315548	     -0.00000000000006643268
      1.98200000000000000000	     -4.47167785363725030000	      2.15572589308092240000	      6.78673885145714100000	      0.75085938952219566000	      0.97078710551362712000	     -0.30766248373691124000	     42.19422410282678700000	     -2.82597972207117420000	     -6.57184949346583380000	   -105.24563045999960000000	     -4.21589308250105970000	     -0.00000000000014143511	      0.00000000000016191230	      2.26388320171667350000	      4.97467880387316000000	     -2.43170001091615570000	    -30.22830829815301400000	      9.85169641061484390000	     -0.00000000000001690560	     -0.00000000000004150757	     -7.48512085162001380000	     -1.86815180204963750000	    -16.27284228883093700000	    -20.23606027969753300000	    -22.77833615858814700000	     14.53353356222355000000	     82.19944874912315000000	     69.53629099834394400000	      0.00000000000002813030	      0.00000000000001289330	     -8.78763131002206070000	    -34.40761442984089100000	     16.99816867032622300000	    114.05804865801457000000	     76.67027599996559700000	     -0.00000000000000320251	     -0.00000000000006697180
      1.98300000000000010000	     -4.46044315691910760000	      2.03616996916298600000	      6.81043172135975980000	      0.75095314988010220000	      0.97150238439517322000	     -0.30770028598419508000	     42.32678199721674200000	     -2.73485988021816430000	     -6.61564651368163670000	   -104.80151839063396000000	     -4.12767300894772050000	     -0.00000000000014187023	      0.00000000000016233936	      1.88758868165485660000	      4.79562629372471430000	     -2.41344479909932770000	    -29.91358986530979500000	      9.39319411259161540000	     -0.00000000000001735071	     -0.00000000000004178892	     -7.47288283566065740000	     -1.70234397227275820000	    -16.43767312374562200000	    -20.37179148080126000000	    -22.91007342823482800000	     14.55191443148714300000	     82.34764072830363100000	     69.53256227137018200000	      0.00000000000002817289	      0.00000000000001290911	     -8.74313323601718650000	    -34.35447261168567200000	     16.92000925485096400000	    114.25012125294079000000	     76.70865127220361000000	     -0.00000000000000324963	     -0.00000000000006751390
      1.98400000000000000000	     -4.44927628161472110000	      1.91670235697285650000	      6.83509508222675870000	      0.75105449518316991000	      0.97222347683684318000	     -0.30774060720610685000	     42.45371730787400800000	     -2.64597588799285340000	     -6.66174831175711190000	   -104.35050533764908000000	     -4.03986229451887800000	     -0.00000000000014230665	      0.00000000000016276414	      1.51185753241977450000	      4.61649505698679620000	     -2.39580506074417390000	    -29.59657572456464100000	      8.92219585776305910000	     -0.00000000000001778437	     -0.00000000000004211634	     -7.45949759459409470000	     -1.53622613361651530000	    -16.60224805682775400000	    -20.50866611045838200000	    -23.04135852461310200000	     14.56656758973125100000	     82.49626677117099400000	     69.53733213835869300000	      0.00000000000002821506	      0.00000000000001292514	     -8.70109534561291120000	    -34.30220050039427800000	     16.84212815283069300000	    114.44363719794977000000	     76.75276383671382500000	     -0.00000000000000329713	     -0.00000000000006806582
      1.98500000000000010000	     -4.43818724062744250000	      1.79741882424970360000	      6.86066063803258430000	      0.75116317391743537000	      0.97294996505571374000	     -0.30778332449670737000	     42.57511750517392800000	     -2.55936253470647170000	     -6.71003165529510430000	   -103.89273024512819000000	     -3.95261436692601760000	     -0.00000000000014274374	      0.00000000000016318875	      1.13681480256930970000	      4.43739331959568610000	     -2.37891021672976330000	    -29.27743612935808700000	      8.43879422199361430000	     -0.00000000000001817962	     -0.00000000000004248270	     -7.44499258276353170000	     -1.36992312516326200000	    -16.76647319231408400000	    -20.64670577519869700000	    -23.17210633779898300000	     14.57737896622592200000	     82.64530023773076600000	     69.55058223922375800000	      0.00000000000002825745	      0.00000000000001294040	     -8.66141498122440720000	    -34.25083985619716000000	     16.76466186549864200000	    114.63854764284392000000	     76.80226592324200400000	     -0.00000000000000334452	     -0.00000000000006861072
      1.98600000000000000000	     -4.42718668036029770000	      1.67841268057910510000	      6.88705621916045360000	      0.75127892897283455000	      0.97368142772444388000	     -0.30782830703512110000	     42.69107275872975300000	     -2.47504647067867990000	     -6.76037080284796320000	   -103.42832984181855000000	     -3.86608728563956560000	     -0.00000000000014317935	      0.00000000000016361387	      0.76258711109245370000	      4.25842743188897990000	     -2.36289747576541660000	    -28.95634840347826300000	      7.94311044679205840000	     -0.00000000000001854910	     -0.00000000000004286047	     -7.42939530233909910000	     -1.20355772429845900000	    -16.93025187495214100000	    -20.78592979810507300000	    -23.30223307614192800000	     14.58423892303996400000	     82.79471742136284700000	     69.57227876437967500000	      0.00000000000002830020	      0.00000000000001295734	     -8.62398872617696100000	    -34.20043233329693800000	     16.68774840440929100000	    114.83480364856585000000	     76.85679121550900600000	     -0.00000000000000339289	     -0.00000000000006913706
      1.98700000000000010000	     -4.41628606401156090000	      1.55977433432245130000	      6.91420599611414400000	      0.75140149844647552000	      0.97441744003301034000	     -0.30787541613047847000	     42.80167572935312800000	     -2.39304587077061950000	     -6.81263787183583340000	   -102.95743829373272000000	     -3.78044295283456580000	     -0.00000000000014361542	      0.00000000000016403831	      0.38930295386537478000	      4.07970136441837550000	     -2.34791178332862980000	    -28.63349767338988600000	      7.43529590565699120000	     -0.00000000000001890831	     -0.00000000000004320408	     -7.41273295426821300000	     -1.03725015538361420000	    -17.09348487519229900000	    -20.92635515669315200000	    -23.43165645231169900000	     14.58704246323591400000	     82.94449722163737700000	     69.60237281955790000000	      0.00000000000002834328	      0.00000000000001297455	     -8.58871273752093240000	    -34.15101936635237900000	     16.61152647552942300000	    115.03235590746685000000	     76.91595864949314900000	     -0.00000000000000343977	     -0.00000000000006964744
      1.98800000000000000000	     -4.40549785284345590000	      1.44159085538562180000	      6.94203069199629310000	      0.75153061643918817000	      0.97515757374851575000	     -0.30792450526489740000	     42.90702135964048100000	     -2.31337010299242520000	     -6.86670320219365850000	   -102.48018685603822000000	     -3.69584632428579550000	     -0.00000000000014404948	      0.00000000000016446385	      0.01709301029128244100	      3.90131621024022920000	     -2.33410577049221950000	    -28.30907760698555700000	      6.91553361064190760000	     -0.00000000000001930236	     -0.00000000000004348500	     -7.39503209033112970000	     -0.87111760481688316000	    -17.25607057466409300000	    -21.06799642434376100000	    -23.56029586602348800000	     14.58568943995196500000	     83.09462081402003300000	     69.64080079159559500000	      0.00000000000002838763	      0.00000000000001299257	     -8.55548307902859230000	    -34.10264205623434500000	     16.53613466404577500000	    115.23115446397695000000	     76.97937621176777200000	     -0.00000000000000348563	     -0.00000000000007016427
      1.98900000000000010000	     -4.39483568703252910000	      1.32394553802990460000	      6.97044779461477320000	      0.75166601384600340000	      0.97590139728033598000	     -0.30797542013388046000	     43.00720666509101200000	     -2.23601939729647150000	     -6.92243571976887400000	   -101.99670352391526000000	     -3.61246462017561540000	     -0.00000000000014448288	      0.00000000000016489127	     -0.35390954892109189000	      3.72336968716857970000	     -2.32163970302254840000	    -27.98329114945879000000	      6.38403971135125130000	     -0.00000000000001970859	     -0.00000000000004376889	     -7.37631826359240070000	     -0.70527373639568114000	    -17.41790515220684200000	    -21.21086571671863700000	    -23.68807258535725800000	     14.58008476606895300000	     83.24507131911066400000	     69.68748471425885800000	      0.00000000000002843246	      0.00000000000001301019	     -8.52419605462131710000	    -34.05534105465763200000	     16.46171061972603800000	    115.43114843672664000000	     77.04664473786060300000	     -0.00000000000000353133	     -0.00000000000007069547
      1.99000000000000000000	     -4.38431456596040900000	      1.20691746357318100000	      6.99937176815217210000	      0.75180741914304805000	      0.97664847575248437000	     -0.30802799868261732000	     43.10233052599890900000	     -2.16098451478314860000	     -6.97970329905229290000	   -101.50711268191934000000	     -3.53046653575766010000	     -0.00000000000014491878	      0.00000000000016531878	     -0.72356875258432429000	      3.54595564047018550000	     -2.31068143056005940000	    -27.65635125433829300000	      5.84106499054503740000	     -0.00000000000002014389	     -0.00000000000004400715	     -7.35661567673327440000	     -0.53982820745960280000	    -17.57888277044466500000	    -21.35497264410670900000	    -23.81490992619888300000	     14.57013862449633000000	     83.39583347153154600000	     69.74233263409045900000	      0.00000000000002847772	      0.00000000000001303026	     -8.49474854301011280000	    -34.00915644756838000000	     16.38839024292873200000	    115.63228574247182000000	     77.11736171064083600000	     -0.00000000000000357799	     -0.00000000000007122617
